<?xml version="1.0" encoding="UTF-8" standalone="no"?>
<!DOCTYPE svg PUBLIC "-//W3C//DTD SVG 1.1//EN" "http://www.w3.org/Graphics/SVG/1.1/DTD/svg11.dtd">
<svg version="1.1" xmlns="http://www.w3.org/2000/svg" xmlns:xlink="http://www.w3.org/1999/xlink" preserveAspectRatio="xMidYMid meet" viewBox="0 0 640 640" width="640" height="640"><defs><path d="M147.59 98.74L215.4 413.68L294.71 98.74L399.31 98.74L477.47 419.43L546.44 98.74L632.64 98.74L531.49 564.25L431.49 564.25L345.29 218.28L259.08 564.25L156.78 564.25L54.48 98.74L147.59 98.74Z" id="b1OIucVsgi"></path><path d="M159.08 564.25L107.36 564.25L6.21 98.74L54.48 98.74L159.08 564.25Z" id="a4bWN42FDt"></path><path d="M294.71 98.74L215.4 406.78L190.11 296.44L241.84 98.74L294.71 98.74Z" id="c2I1rkCd9K"></path><path d="M376.32 564.25L320 325.17L343.56 221.72" id="abZNGM38e"></path><path d="M430.34 564.25L376.32 564.25L316.55 325.17L343.56 221.72L430.34 564.25Z" id="dnQoaCxDE"></path><path d="M545.29 98.74L477.47 417.13L449.89 299.89L492.41 98.74L545.29 98.74Z" id="b14Ci2MPWn"></path><path d="M190.11 294.14L242.41 98.74L399.31 98.74L449.89 302.18L493.56 98.74L632.64 98.74L530.34 564.25L376.32 564.25L317.7 326.32L260.23 564.25L106.21 564.25L6.21 98.74L148.74 98.74L190.11 294.14Z" id="cfqrKFu0L"></path></defs><g><g><g><use xlink:href="#b1OIucVsgi" opacity="1" fill="#f5f3f4" fill-opacity="1"></use><g><use xlink:href="#b1OIucVsgi" opacity="1" fill-opacity="0" stroke="#ffffff" stroke-width="0" stroke-opacity="1"></use></g></g><g><use xlink:href="#a4bWN42FDt" opacity="1" fill="#e5383b" fill-opacity="1"></use><g><use xlink:href="#a4bWN42FDt" opacity="1" fill-opacity="0" stroke="#e5383b" stroke-width="1" stroke-opacity="1"></use></g></g><g><use xlink:href="#c2I1rkCd9K" opacity="1" fill="#e5383b" fill-opacity="1"></use><g><use xlink:href="#c2I1rkCd9K" opacity="1" fill-opacity="0" stroke="#e5383b" stroke-width="1" stroke-opacity="1"></use></g></g><g><g><use xlink:href="#abZNGM38e" opacity="1" fill-opacity="0" stroke="#230f0f" stroke-width="1" stroke-opacity="1"></use></g></g><g><use xlink:href="#dnQoaCxDE" opacity="1" fill="#e5383b" fill-opacity="1"></use><g><use xlink:href="#dnQoaCxDE" opacity="1" fill-opacity="0" stroke="#e5383b" stroke-width="1" stroke-opacity="1"></use></g></g><g><use xlink:href="#b14Ci2MPWn" opacity="1" fill="#e5383b" fill-opacity="1"></use><g><use xlink:href="#b14Ci2MPWn" opacity="1" fill-opacity="0" stroke="#e5383b" stroke-width="1" stroke-opacity="1"></use></g></g><g><g><use xlink:href="#cfqrKFu0L" opacity="1" fill-opacity="0" stroke="#000000" stroke-width="4" stroke-opacity="1"></use></g></g></g></g></svg>